<svg width="48" height="48" viewBox="0 0 48 48" fill="none" xmlns="http://www.w3.org/2000/svg">
<g clip-path="url(#clip0_219_1019)">
<g clip-path="url(#clip1_219_1019)">
<path d="M15.6147 17.9258V17.9268C16.3994 17.911 17.2616 18.4084 17.6704 19.1582L17.8013 19.3887C17.9237 19.6212 18.0531 19.8484 18.4546 19.9619L18.5952 19.9883C18.7435 20.0023 18.9126 19.9811 19.0972 19.9326C19.3426 19.8681 19.6104 19.7553 19.8843 19.6162C20.4322 19.338 20.9973 18.9585 21.4487 18.6592L21.853 18.3936C21.9831 18.3092 22.1081 18.23 22.2271 18.1582L22.3286 18.1035C22.8461 17.8586 23.4767 18.0398 23.7788 18.541L23.8335 18.6426C24.0632 19.1257 23.9199 19.7069 23.4927 20.0283L23.396 20.0928C23.1841 20.221 22.9509 20.3773 22.6987 20.5439L22.6978 20.543C22.1475 20.9079 21.507 21.3334 20.8208 21.667C20.2201 21.959 19.5816 22.1831 18.9351 22.2344L18.6577 22.2451C18.5257 22.2451 18.3946 22.2322 18.2642 22.2148L18.7583 25.418C20.6122 25.4821 21.6264 25.599 22.2222 25.749C22.5233 25.8249 22.7199 25.9103 22.8647 26.0029C23.0099 26.0957 23.1005 26.1942 23.189 26.291L23.2905 26.415C23.4804 26.6746 23.5953 27.0036 23.605 27.3252L23.6011 27.4854C23.5984 27.519 23.4565 29.2142 23.3071 30.9365C23.2324 31.7978 23.1552 32.666 23.0933 33.3369C23.0623 33.6723 23.0348 33.9585 23.0132 34.1699L22.9673 34.5596C22.8082 35.2665 22.1806 35.748 21.4849 35.748C21.4298 35.748 21.3739 35.7444 21.3179 35.7383L21.1499 35.7109C20.3712 35.5353 19.8667 34.7904 19.9771 34.0127L20.1968 31.9209C20.302 30.8909 20.4207 29.6784 20.5015 28.7461C20.4663 28.7434 20.4156 28.7403 20.3521 28.7354C20.2201 28.725 20.0312 28.7099 19.8032 28.6914C19.3465 28.6544 18.7325 28.604 18.105 28.5469C17.4776 28.4898 16.8354 28.4264 16.3228 28.3662C16.0666 28.3361 15.842 28.3071 15.6675 28.2793C15.5019 28.2529 15.3752 28.2255 15.3101 28.2002V28.2012C14.8469 28.0764 14.4753 27.8995 14.2026 27.6406C13.9633 27.4133 13.8031 27.1255 13.7212 26.7617L13.6909 26.6006L13.2251 23.5742L13.2095 23.4756L13.3022 23.5137C13.5805 23.6284 13.8745 23.743 14.2017 23.8721L14.3892 23.9365C14.8143 24.0596 15.1505 23.9969 15.4058 23.8525C15.6998 23.6862 15.8934 23.4067 15.9897 23.1562L16.0317 23.0303C16.1169 22.7359 16.1044 22.4422 15.9858 22.1816C15.8502 21.8839 15.573 21.6227 15.1313 21.4521V21.4512L13.6528 20.8633C13.5997 20.8867 13.5471 20.9108 13.4956 20.9336C14.0117 21.1679 14.6136 21.4219 15.1558 21.6309L15.2612 21.6777C15.7724 21.9364 16.0143 22.5454 15.8042 23.0918V23.0928C15.6308 23.5409 15.2033 23.8163 14.7495 23.8164C14.6481 23.8164 14.5451 23.803 14.4438 23.7744L14.3433 23.7402C13.4537 23.3973 12.766 23.1028 12.2261 22.8447L13.1646 26.7109L13.1655 26.7139H13.1646L13.1655 26.7148C13.1656 26.7154 13.1653 26.7165 13.1655 26.7178C13.1661 26.7207 13.1671 26.7256 13.1685 26.7314C13.1711 26.7434 13.1761 26.7613 13.1821 26.7842C13.1942 26.83 13.2136 26.8961 13.2427 26.9766C13.3008 27.1376 13.3972 27.3554 13.5503 27.5811C13.8562 28.0317 14.3885 28.5159 15.2974 28.6475L15.939 28.7305C16.6353 28.8132 17.4689 28.8933 18.1948 28.957C18.6787 28.9995 19.1145 29.0347 19.4292 29.0596C19.5865 29.072 19.7135 29.0822 19.8013 29.0889C19.8449 29.0922 19.8788 29.095 19.9019 29.0967C19.9132 29.0975 19.9223 29.0982 19.9282 29.0986H19.937L19.9956 29.1035L19.9897 29.1611L19.3687 34.875L19.3638 34.9258H9.90576V34.8691L9.90967 22.3848V22.3281H11.2622C10.8186 22.052 10.5755 21.822 10.4438 21.6113C10.2941 21.3714 10.2918 21.1625 10.2915 20.9639L10.2993 20.7734C10.3073 20.7019 10.3236 20.6222 10.355 20.5352C10.4179 20.3605 10.5414 20.1597 10.7817 19.9336C11.2607 19.4831 12.208 18.9248 14.0806 18.2568L14.3882 18.1475C14.686 18.0526 14.9535 17.9988 15.1616 17.9678C15.3001 17.9472 15.4125 17.9368 15.4907 17.9316C15.5297 17.9291 15.5607 17.9274 15.5815 17.9268C15.592 17.9264 15.6005 17.9268 15.606 17.9268C15.6085 17.9267 15.6104 17.9258 15.6118 17.9258H15.6147Z" fill="#4A6437" stroke="#4A6437" stroke-width="0.113209"/>
<path d="M15.1675 12.2559C16.7262 12.2559 17.9896 13.5194 17.9897 15.0781C17.9897 16.6369 16.7263 17.9004 15.1675 17.9004C13.6088 17.9003 12.3452 16.6368 12.3452 15.0781C12.3453 13.5195 13.6089 12.256 15.1675 12.2559Z" fill="#4A6437" stroke="#4A6437" stroke-width="0.113209"/>
<path d="M32.3872 17.4961C32.3887 17.4961 32.3913 17.497 32.394 17.4971C32.3995 17.4972 32.4073 17.4968 32.4175 17.4971C32.4384 17.4977 32.4692 17.4994 32.5083 17.502C32.5866 17.5072 32.6996 17.5174 32.8384 17.5381C33.1159 17.5794 33.4983 17.6619 33.9185 17.8271H33.9175C35.7908 18.4953 36.7382 19.0533 37.2173 19.5039C37.4577 19.7301 37.5821 19.9308 37.645 20.1055C37.7078 20.28 37.7076 20.425 37.7075 20.5342L37.7046 20.6855C37.697 20.8391 37.6684 21.0018 37.5562 21.1816C37.4246 21.3923 37.1813 21.6223 36.7378 21.8984H38.0903V21.9551L38.0933 34.4395V34.4961H28.6362L28.6304 34.4453L28.0103 28.7314L28.0034 28.6738L28.062 28.6689H28.0708C28.0767 28.6685 28.0856 28.6679 28.0972 28.667C28.1202 28.6653 28.1541 28.6625 28.1978 28.6592C28.2854 28.6525 28.4127 28.6423 28.5698 28.6299C28.8844 28.605 29.3204 28.5698 29.8042 28.5273C30.7723 28.4423 31.9324 28.3293 32.7026 28.2178L32.8687 28.1895C33.6767 28.0263 34.1619 27.5747 34.4487 27.1523C34.602 26.9265 34.6991 26.708 34.7573 26.5469C34.7863 26.4665 34.8058 26.4003 34.8179 26.3545C34.8239 26.3316 34.8279 26.3137 34.8306 26.3018C34.8319 26.2959 34.8329 26.291 34.8335 26.2881C34.8338 26.2868 34.8344 26.2858 34.8345 26.2852V26.2812L34.8901 26.2949L34.8354 26.2812L35.772 22.415C35.3762 22.6042 34.9016 22.8142 34.3257 23.0469L33.6558 23.3105C33.5224 23.3618 33.3855 23.3867 33.2505 23.3867C32.8531 23.3867 32.4752 23.1757 32.271 22.8223L32.1948 22.6631C31.9706 22.0804 32.2609 21.4255 32.8433 21.2012L33.2905 21.0244C33.703 20.8577 34.126 20.6753 34.5034 20.5039C34.4517 20.481 34.3987 20.4571 34.3452 20.4336L32.8687 21.0215L32.8677 21.0225C32.4262 21.193 32.1497 21.4543 32.0142 21.752C31.8785 22.0498 31.881 22.3905 32.0103 22.7266L32.0503 22.8213C32.1558 23.0449 32.336 23.2772 32.5933 23.4229C32.8848 23.5878 33.2825 23.6456 33.7974 23.4424L34.6968 23.084L34.7896 23.0459L34.7739 23.1445L34.3091 26.1709C34.2411 26.6121 34.07 26.9511 33.7964 27.2109C33.5238 27.4697 33.153 27.6467 32.6899 27.7715L32.689 27.7705C32.6237 27.7958 32.4969 27.8233 32.3315 27.8496C32.1569 27.8774 31.9324 27.9064 31.6763 27.9365C31.1636 27.9967 30.5215 28.0601 29.894 28.1172C29.2668 28.1742 28.6534 28.2257 28.1968 28.2627C27.9684 28.2812 27.779 28.2953 27.647 28.3057C27.5826 28.3107 27.5318 28.3147 27.4966 28.3174C27.6593 30.1978 27.9819 33.2169 28.022 33.5811L28.0356 33.7266C28.067 34.4023 27.6433 35.027 26.9927 35.2412L26.8501 35.2812C26.7378 35.3062 26.625 35.3183 26.5151 35.3184C25.8627 35.3184 25.2704 34.8953 25.0679 34.2598L25.0327 34.1299C25.0237 34.0894 25.0071 33.9485 24.9858 33.7402C24.9643 33.5288 24.9367 33.2426 24.9058 32.9072C24.8439 32.2364 24.7676 31.368 24.6929 30.5068L24.3989 27.0557C24.3638 26.6328 24.5243 26.1737 24.8101 25.8613L24.9517 25.7158C25.0034 25.6675 25.0619 25.6195 25.1343 25.5732C25.2791 25.4806 25.4758 25.3952 25.7769 25.3193C26.3725 25.1693 27.3869 25.0525 29.2407 24.9883L29.7339 21.7852C29.6038 21.8024 29.473 21.8154 29.3413 21.8154C28.6007 21.8154 27.8645 21.5719 27.1782 21.2383C26.4919 20.9046 25.8515 20.4783 25.3013 20.1133V20.1143C25.1752 20.0309 25.0534 19.9498 24.937 19.874L24.603 19.6631C24.0688 19.3403 23.8972 18.6455 24.2212 18.1113L24.2856 18.0156C24.6294 17.5575 25.2715 17.4266 25.772 17.7285L26.146 17.9639C26.276 18.0482 26.4112 18.1374 26.5503 18.2295H26.5513L27.2964 18.7158C27.5625 18.883 27.8408 19.0474 28.1147 19.1865C28.3885 19.3255 28.6565 19.4384 28.9019 19.5029C29.1479 19.5676 29.3669 19.5827 29.5454 19.5322L29.6401 19.502C30.0878 19.3374 30.1439 19.0084 30.3286 18.7285C30.7374 17.9784 31.6004 17.4811 32.3853 17.4971V17.4961H32.3872Z" fill="#4A6437" stroke="#4A6437" stroke-width="0.113209"/>
<path d="M33.0596 12.2559C34.6183 12.2559 35.8817 13.5194 35.8818 15.0781C35.8818 16.6369 34.6184 17.9004 33.0596 17.9004C31.5009 17.9003 30.2373 16.6368 30.2373 15.0781C30.2374 13.5195 31.5009 12.256 33.0596 12.2559Z" fill="#4A6437" stroke="#4A6437" stroke-width="0.113209"/>
<g filter="url(#filter0_dddddd_219_1019)">
<circle cx="36.6909" cy="12.6445" r="0.66795" fill="#4A6437"/>
</g>
<g filter="url(#filter1_dddddd_219_1019)">
<circle cx="24.334" cy="7.63476" r="0.333975" fill="#4A6437"/>
</g>
<g filter="url(#filter2_dddddd_219_1019)">
<circle cx="12.9785" cy="37.6934" r="0.333975" fill="#4A6437"/>
</g>
<g filter="url(#filter3_dddddd_219_1019)">
<circle cx="39.0288" cy="17.6543" r="0.333975" fill="#4A6437"/>
</g>
<g filter="url(#filter4_dddddd_219_1019)">
<circle cx="41.0327" cy="29.0078" r="0.333975" fill="#4A6437"/>
</g>
<g filter="url(#filter5_dddddd_219_1019)">
<circle cx="5.63085" cy="30.3457" r="0.333975" fill="#4A6437"/>
</g>
<g filter="url(#filter6_dddddd_219_1019)">
<circle cx="9.97264" cy="10.6406" r="0.66795" fill="#4A6437"/>
</g>
<g filter="url(#filter7_dddddd_219_1019)">
<circle cx="33.685" cy="38.3613" r="1.00193" fill="#4A6437"/>
</g>
<g filter="url(#filter8_dddddd_219_1019)">
<circle cx="15.3169" cy="40.6992" r="0.66795" fill="#4A6437"/>
</g>
</g>
</g>
<defs>
<filter id="filter0_dddddd_219_1019" x="30.7965" y="6.75012" width="11.7888" height="11.7888" filterUnits="userSpaceOnUse" color-interpolation-filters="sRGB">
<feFlood flood-opacity="0" result="BackgroundImageFix"/>
<feColorMatrix in="SourceAlpha" type="matrix" values="0 0 0 0 0 0 0 0 0 0 0 0 0 0 0 0 0 0 127 0" result="hardAlpha"/>
<feOffset/>
<feGaussianBlur stdDeviation="0.0622196"/>
<feColorMatrix type="matrix" values="0 0 0 0 0.219608 0 0 0 0 1 0 0 0 0 0.494118 0 0 0 1 0"/>
<feBlend mode="normal" in2="BackgroundImageFix" result="effect1_dropShadow_219_1019"/>
<feColorMatrix in="SourceAlpha" type="matrix" values="0 0 0 0 0 0 0 0 0 0 0 0 0 0 0 0 0 0 127 0" result="hardAlpha"/>
<feOffset/>
<feGaussianBlur stdDeviation="0.124439"/>
<feColorMatrix type="matrix" values="0 0 0 0 0.219608 0 0 0 0 1 0 0 0 0 0.494118 0 0 0 1 0"/>
<feBlend mode="normal" in2="effect1_dropShadow_219_1019" result="effect2_dropShadow_219_1019"/>
<feColorMatrix in="SourceAlpha" type="matrix" values="0 0 0 0 0 0 0 0 0 0 0 0 0 0 0 0 0 0 127 0" result="hardAlpha"/>
<feOffset/>
<feGaussianBlur stdDeviation="0.435537"/>
<feColorMatrix type="matrix" values="0 0 0 0 0.219608 0 0 0 0 1 0 0 0 0 0.494118 0 0 0 1 0"/>
<feBlend mode="normal" in2="effect2_dropShadow_219_1019" result="effect3_dropShadow_219_1019"/>
<feColorMatrix in="SourceAlpha" type="matrix" values="0 0 0 0 0 0 0 0 0 0 0 0 0 0 0 0 0 0 127 0" result="hardAlpha"/>
<feOffset/>
<feGaussianBlur stdDeviation="0.871074"/>
<feColorMatrix type="matrix" values="0 0 0 0 0.219608 0 0 0 0 1 0 0 0 0 0.494118 0 0 0 1 0"/>
<feBlend mode="normal" in2="effect3_dropShadow_219_1019" result="effect4_dropShadow_219_1019"/>
<feColorMatrix in="SourceAlpha" type="matrix" values="0 0 0 0 0 0 0 0 0 0 0 0 0 0 0 0 0 0 127 0" result="hardAlpha"/>
<feOffset/>
<feGaussianBlur stdDeviation="1.49327"/>
<feColorMatrix type="matrix" values="0 0 0 0 0.219608 0 0 0 0 1 0 0 0 0 0.494118 0 0 0 1 0"/>
<feBlend mode="normal" in2="effect4_dropShadow_219_1019" result="effect5_dropShadow_219_1019"/>
<feColorMatrix in="SourceAlpha" type="matrix" values="0 0 0 0 0 0 0 0 0 0 0 0 0 0 0 0 0 0 127 0" result="hardAlpha"/>
<feOffset/>
<feGaussianBlur stdDeviation="2.61322"/>
<feColorMatrix type="matrix" values="0 0 0 0 0.219608 0 0 0 0 1 0 0 0 0 0.494118 0 0 0 1 0"/>
<feBlend mode="normal" in2="effect5_dropShadow_219_1019" result="effect6_dropShadow_219_1019"/>
<feBlend mode="normal" in="SourceGraphic" in2="effect6_dropShadow_219_1019" result="shape"/>
</filter>
<filter id="filter1_dddddd_219_1019" x="21.3868" y="4.68756" width="5.89441" height="5.89441" filterUnits="userSpaceOnUse" color-interpolation-filters="sRGB">
<feFlood flood-opacity="0" result="BackgroundImageFix"/>
<feColorMatrix in="SourceAlpha" type="matrix" values="0 0 0 0 0 0 0 0 0 0 0 0 0 0 0 0 0 0 127 0" result="hardAlpha"/>
<feOffset/>
<feGaussianBlur stdDeviation="0.0311098"/>
<feColorMatrix type="matrix" values="0 0 0 0 0.219608 0 0 0 0 1 0 0 0 0 0.494118 0 0 0 1 0"/>
<feBlend mode="normal" in2="BackgroundImageFix" result="effect1_dropShadow_219_1019"/>
<feColorMatrix in="SourceAlpha" type="matrix" values="0 0 0 0 0 0 0 0 0 0 0 0 0 0 0 0 0 0 127 0" result="hardAlpha"/>
<feOffset/>
<feGaussianBlur stdDeviation="0.0622196"/>
<feColorMatrix type="matrix" values="0 0 0 0 0.219608 0 0 0 0 1 0 0 0 0 0.494118 0 0 0 1 0"/>
<feBlend mode="normal" in2="effect1_dropShadow_219_1019" result="effect2_dropShadow_219_1019"/>
<feColorMatrix in="SourceAlpha" type="matrix" values="0 0 0 0 0 0 0 0 0 0 0 0 0 0 0 0 0 0 127 0" result="hardAlpha"/>
<feOffset/>
<feGaussianBlur stdDeviation="0.217768"/>
<feColorMatrix type="matrix" values="0 0 0 0 0.219608 0 0 0 0 1 0 0 0 0 0.494118 0 0 0 1 0"/>
<feBlend mode="normal" in2="effect2_dropShadow_219_1019" result="effect3_dropShadow_219_1019"/>
<feColorMatrix in="SourceAlpha" type="matrix" values="0 0 0 0 0 0 0 0 0 0 0 0 0 0 0 0 0 0 127 0" result="hardAlpha"/>
<feOffset/>
<feGaussianBlur stdDeviation="0.435537"/>
<feColorMatrix type="matrix" values="0 0 0 0 0.219608 0 0 0 0 1 0 0 0 0 0.494118 0 0 0 1 0"/>
<feBlend mode="normal" in2="effect3_dropShadow_219_1019" result="effect4_dropShadow_219_1019"/>
<feColorMatrix in="SourceAlpha" type="matrix" values="0 0 0 0 0 0 0 0 0 0 0 0 0 0 0 0 0 0 127 0" result="hardAlpha"/>
<feOffset/>
<feGaussianBlur stdDeviation="0.746635"/>
<feColorMatrix type="matrix" values="0 0 0 0 0.219608 0 0 0 0 1 0 0 0 0 0.494118 0 0 0 1 0"/>
<feBlend mode="normal" in2="effect4_dropShadow_219_1019" result="effect5_dropShadow_219_1019"/>
<feColorMatrix in="SourceAlpha" type="matrix" values="0 0 0 0 0 0 0 0 0 0 0 0 0 0 0 0 0 0 127 0" result="hardAlpha"/>
<feOffset/>
<feGaussianBlur stdDeviation="1.30661"/>
<feColorMatrix type="matrix" values="0 0 0 0 0.219608 0 0 0 0 1 0 0 0 0 0.494118 0 0 0 1 0"/>
<feBlend mode="normal" in2="effect5_dropShadow_219_1019" result="effect6_dropShadow_219_1019"/>
<feBlend mode="normal" in="SourceGraphic" in2="effect6_dropShadow_219_1019" result="shape"/>
</filter>
<filter id="filter2_dddddd_219_1019" x="10.0313" y="34.7462" width="5.89441" height="5.89441" filterUnits="userSpaceOnUse" color-interpolation-filters="sRGB">
<feFlood flood-opacity="0" result="BackgroundImageFix"/>
<feColorMatrix in="SourceAlpha" type="matrix" values="0 0 0 0 0 0 0 0 0 0 0 0 0 0 0 0 0 0 127 0" result="hardAlpha"/>
<feOffset/>
<feGaussianBlur stdDeviation="0.0311098"/>
<feColorMatrix type="matrix" values="0 0 0 0 0.219608 0 0 0 0 1 0 0 0 0 0.494118 0 0 0 1 0"/>
<feBlend mode="normal" in2="BackgroundImageFix" result="effect1_dropShadow_219_1019"/>
<feColorMatrix in="SourceAlpha" type="matrix" values="0 0 0 0 0 0 0 0 0 0 0 0 0 0 0 0 0 0 127 0" result="hardAlpha"/>
<feOffset/>
<feGaussianBlur stdDeviation="0.0622196"/>
<feColorMatrix type="matrix" values="0 0 0 0 0.219608 0 0 0 0 1 0 0 0 0 0.494118 0 0 0 1 0"/>
<feBlend mode="normal" in2="effect1_dropShadow_219_1019" result="effect2_dropShadow_219_1019"/>
<feColorMatrix in="SourceAlpha" type="matrix" values="0 0 0 0 0 0 0 0 0 0 0 0 0 0 0 0 0 0 127 0" result="hardAlpha"/>
<feOffset/>
<feGaussianBlur stdDeviation="0.217768"/>
<feColorMatrix type="matrix" values="0 0 0 0 0.219608 0 0 0 0 1 0 0 0 0 0.494118 0 0 0 1 0"/>
<feBlend mode="normal" in2="effect2_dropShadow_219_1019" result="effect3_dropShadow_219_1019"/>
<feColorMatrix in="SourceAlpha" type="matrix" values="0 0 0 0 0 0 0 0 0 0 0 0 0 0 0 0 0 0 127 0" result="hardAlpha"/>
<feOffset/>
<feGaussianBlur stdDeviation="0.435537"/>
<feColorMatrix type="matrix" values="0 0 0 0 0.219608 0 0 0 0 1 0 0 0 0 0.494118 0 0 0 1 0"/>
<feBlend mode="normal" in2="effect3_dropShadow_219_1019" result="effect4_dropShadow_219_1019"/>
<feColorMatrix in="SourceAlpha" type="matrix" values="0 0 0 0 0 0 0 0 0 0 0 0 0 0 0 0 0 0 127 0" result="hardAlpha"/>
<feOffset/>
<feGaussianBlur stdDeviation="0.746635"/>
<feColorMatrix type="matrix" values="0 0 0 0 0.219608 0 0 0 0 1 0 0 0 0 0.494118 0 0 0 1 0"/>
<feBlend mode="normal" in2="effect4_dropShadow_219_1019" result="effect5_dropShadow_219_1019"/>
<feColorMatrix in="SourceAlpha" type="matrix" values="0 0 0 0 0 0 0 0 0 0 0 0 0 0 0 0 0 0 127 0" result="hardAlpha"/>
<feOffset/>
<feGaussianBlur stdDeviation="1.30661"/>
<feColorMatrix type="matrix" values="0 0 0 0 0.219608 0 0 0 0 1 0 0 0 0 0.494118 0 0 0 1 0"/>
<feBlend mode="normal" in2="effect5_dropShadow_219_1019" result="effect6_dropShadow_219_1019"/>
<feBlend mode="normal" in="SourceGraphic" in2="effect6_dropShadow_219_1019" result="shape"/>
</filter>
<filter id="filter3_dddddd_219_1019" x="36.0816" y="14.7071" width="5.89441" height="5.89441" filterUnits="userSpaceOnUse" color-interpolation-filters="sRGB">
<feFlood flood-opacity="0" result="BackgroundImageFix"/>
<feColorMatrix in="SourceAlpha" type="matrix" values="0 0 0 0 0 0 0 0 0 0 0 0 0 0 0 0 0 0 127 0" result="hardAlpha"/>
<feOffset/>
<feGaussianBlur stdDeviation="0.0311098"/>
<feColorMatrix type="matrix" values="0 0 0 0 0.219608 0 0 0 0 1 0 0 0 0 0.494118 0 0 0 1 0"/>
<feBlend mode="normal" in2="BackgroundImageFix" result="effect1_dropShadow_219_1019"/>
<feColorMatrix in="SourceAlpha" type="matrix" values="0 0 0 0 0 0 0 0 0 0 0 0 0 0 0 0 0 0 127 0" result="hardAlpha"/>
<feOffset/>
<feGaussianBlur stdDeviation="0.0622196"/>
<feColorMatrix type="matrix" values="0 0 0 0 0.219608 0 0 0 0 1 0 0 0 0 0.494118 0 0 0 1 0"/>
<feBlend mode="normal" in2="effect1_dropShadow_219_1019" result="effect2_dropShadow_219_1019"/>
<feColorMatrix in="SourceAlpha" type="matrix" values="0 0 0 0 0 0 0 0 0 0 0 0 0 0 0 0 0 0 127 0" result="hardAlpha"/>
<feOffset/>
<feGaussianBlur stdDeviation="0.217768"/>
<feColorMatrix type="matrix" values="0 0 0 0 0.219608 0 0 0 0 1 0 0 0 0 0.494118 0 0 0 1 0"/>
<feBlend mode="normal" in2="effect2_dropShadow_219_1019" result="effect3_dropShadow_219_1019"/>
<feColorMatrix in="SourceAlpha" type="matrix" values="0 0 0 0 0 0 0 0 0 0 0 0 0 0 0 0 0 0 127 0" result="hardAlpha"/>
<feOffset/>
<feGaussianBlur stdDeviation="0.435537"/>
<feColorMatrix type="matrix" values="0 0 0 0 0.219608 0 0 0 0 1 0 0 0 0 0.494118 0 0 0 1 0"/>
<feBlend mode="normal" in2="effect3_dropShadow_219_1019" result="effect4_dropShadow_219_1019"/>
<feColorMatrix in="SourceAlpha" type="matrix" values="0 0 0 0 0 0 0 0 0 0 0 0 0 0 0 0 0 0 127 0" result="hardAlpha"/>
<feOffset/>
<feGaussianBlur stdDeviation="0.746635"/>
<feColorMatrix type="matrix" values="0 0 0 0 0.219608 0 0 0 0 1 0 0 0 0 0.494118 0 0 0 1 0"/>
<feBlend mode="normal" in2="effect4_dropShadow_219_1019" result="effect5_dropShadow_219_1019"/>
<feColorMatrix in="SourceAlpha" type="matrix" values="0 0 0 0 0 0 0 0 0 0 0 0 0 0 0 0 0 0 127 0" result="hardAlpha"/>
<feOffset/>
<feGaussianBlur stdDeviation="1.30661"/>
<feColorMatrix type="matrix" values="0 0 0 0 0.219608 0 0 0 0 1 0 0 0 0 0.494118 0 0 0 1 0"/>
<feBlend mode="normal" in2="effect5_dropShadow_219_1019" result="effect6_dropShadow_219_1019"/>
<feBlend mode="normal" in="SourceGraphic" in2="effect6_dropShadow_219_1019" result="shape"/>
</filter>
<filter id="filter4_dddddd_219_1019" x="38.0855" y="26.0606" width="5.89441" height="5.89441" filterUnits="userSpaceOnUse" color-interpolation-filters="sRGB">
<feFlood flood-opacity="0" result="BackgroundImageFix"/>
<feColorMatrix in="SourceAlpha" type="matrix" values="0 0 0 0 0 0 0 0 0 0 0 0 0 0 0 0 0 0 127 0" result="hardAlpha"/>
<feOffset/>
<feGaussianBlur stdDeviation="0.0311098"/>
<feColorMatrix type="matrix" values="0 0 0 0 0.219608 0 0 0 0 1 0 0 0 0 0.494118 0 0 0 1 0"/>
<feBlend mode="normal" in2="BackgroundImageFix" result="effect1_dropShadow_219_1019"/>
<feColorMatrix in="SourceAlpha" type="matrix" values="0 0 0 0 0 0 0 0 0 0 0 0 0 0 0 0 0 0 127 0" result="hardAlpha"/>
<feOffset/>
<feGaussianBlur stdDeviation="0.0622196"/>
<feColorMatrix type="matrix" values="0 0 0 0 0.219608 0 0 0 0 1 0 0 0 0 0.494118 0 0 0 1 0"/>
<feBlend mode="normal" in2="effect1_dropShadow_219_1019" result="effect2_dropShadow_219_1019"/>
<feColorMatrix in="SourceAlpha" type="matrix" values="0 0 0 0 0 0 0 0 0 0 0 0 0 0 0 0 0 0 127 0" result="hardAlpha"/>
<feOffset/>
<feGaussianBlur stdDeviation="0.217768"/>
<feColorMatrix type="matrix" values="0 0 0 0 0.219608 0 0 0 0 1 0 0 0 0 0.494118 0 0 0 1 0"/>
<feBlend mode="normal" in2="effect2_dropShadow_219_1019" result="effect3_dropShadow_219_1019"/>
<feColorMatrix in="SourceAlpha" type="matrix" values="0 0 0 0 0 0 0 0 0 0 0 0 0 0 0 0 0 0 127 0" result="hardAlpha"/>
<feOffset/>
<feGaussianBlur stdDeviation="0.435537"/>
<feColorMatrix type="matrix" values="0 0 0 0 0.219608 0 0 0 0 1 0 0 0 0 0.494118 0 0 0 1 0"/>
<feBlend mode="normal" in2="effect3_dropShadow_219_1019" result="effect4_dropShadow_219_1019"/>
<feColorMatrix in="SourceAlpha" type="matrix" values="0 0 0 0 0 0 0 0 0 0 0 0 0 0 0 0 0 0 127 0" result="hardAlpha"/>
<feOffset/>
<feGaussianBlur stdDeviation="0.746635"/>
<feColorMatrix type="matrix" values="0 0 0 0 0.219608 0 0 0 0 1 0 0 0 0 0.494118 0 0 0 1 0"/>
<feBlend mode="normal" in2="effect4_dropShadow_219_1019" result="effect5_dropShadow_219_1019"/>
<feColorMatrix in="SourceAlpha" type="matrix" values="0 0 0 0 0 0 0 0 0 0 0 0 0 0 0 0 0 0 127 0" result="hardAlpha"/>
<feOffset/>
<feGaussianBlur stdDeviation="1.30661"/>
<feColorMatrix type="matrix" values="0 0 0 0 0.219608 0 0 0 0 1 0 0 0 0 0.494118 0 0 0 1 0"/>
<feBlend mode="normal" in2="effect5_dropShadow_219_1019" result="effect6_dropShadow_219_1019"/>
<feBlend mode="normal" in="SourceGraphic" in2="effect6_dropShadow_219_1019" result="shape"/>
</filter>
<filter id="filter5_dddddd_219_1019" x="2.68365" y="27.3985" width="5.89441" height="5.89441" filterUnits="userSpaceOnUse" color-interpolation-filters="sRGB">
<feFlood flood-opacity="0" result="BackgroundImageFix"/>
<feColorMatrix in="SourceAlpha" type="matrix" values="0 0 0 0 0 0 0 0 0 0 0 0 0 0 0 0 0 0 127 0" result="hardAlpha"/>
<feOffset/>
<feGaussianBlur stdDeviation="0.0311098"/>
<feColorMatrix type="matrix" values="0 0 0 0 0.219608 0 0 0 0 1 0 0 0 0 0.494118 0 0 0 1 0"/>
<feBlend mode="normal" in2="BackgroundImageFix" result="effect1_dropShadow_219_1019"/>
<feColorMatrix in="SourceAlpha" type="matrix" values="0 0 0 0 0 0 0 0 0 0 0 0 0 0 0 0 0 0 127 0" result="hardAlpha"/>
<feOffset/>
<feGaussianBlur stdDeviation="0.0622196"/>
<feColorMatrix type="matrix" values="0 0 0 0 0.219608 0 0 0 0 1 0 0 0 0 0.494118 0 0 0 1 0"/>
<feBlend mode="normal" in2="effect1_dropShadow_219_1019" result="effect2_dropShadow_219_1019"/>
<feColorMatrix in="SourceAlpha" type="matrix" values="0 0 0 0 0 0 0 0 0 0 0 0 0 0 0 0 0 0 127 0" result="hardAlpha"/>
<feOffset/>
<feGaussianBlur stdDeviation="0.217768"/>
<feColorMatrix type="matrix" values="0 0 0 0 0.219608 0 0 0 0 1 0 0 0 0 0.494118 0 0 0 1 0"/>
<feBlend mode="normal" in2="effect2_dropShadow_219_1019" result="effect3_dropShadow_219_1019"/>
<feColorMatrix in="SourceAlpha" type="matrix" values="0 0 0 0 0 0 0 0 0 0 0 0 0 0 0 0 0 0 127 0" result="hardAlpha"/>
<feOffset/>
<feGaussianBlur stdDeviation="0.435537"/>
<feColorMatrix type="matrix" values="0 0 0 0 0.219608 0 0 0 0 1 0 0 0 0 0.494118 0 0 0 1 0"/>
<feBlend mode="normal" in2="effect3_dropShadow_219_1019" result="effect4_dropShadow_219_1019"/>
<feColorMatrix in="SourceAlpha" type="matrix" values="0 0 0 0 0 0 0 0 0 0 0 0 0 0 0 0 0 0 127 0" result="hardAlpha"/>
<feOffset/>
<feGaussianBlur stdDeviation="0.746635"/>
<feColorMatrix type="matrix" values="0 0 0 0 0.219608 0 0 0 0 1 0 0 0 0 0.494118 0 0 0 1 0"/>
<feBlend mode="normal" in2="effect4_dropShadow_219_1019" result="effect5_dropShadow_219_1019"/>
<feColorMatrix in="SourceAlpha" type="matrix" values="0 0 0 0 0 0 0 0 0 0 0 0 0 0 0 0 0 0 127 0" result="hardAlpha"/>
<feOffset/>
<feGaussianBlur stdDeviation="1.30661"/>
<feColorMatrix type="matrix" values="0 0 0 0 0.219608 0 0 0 0 1 0 0 0 0 0.494118 0 0 0 1 0"/>
<feBlend mode="normal" in2="effect5_dropShadow_219_1019" result="effect6_dropShadow_219_1019"/>
<feBlend mode="normal" in="SourceGraphic" in2="effect6_dropShadow_219_1019" result="shape"/>
</filter>
<filter id="filter6_dddddd_219_1019" x="4.07824" y="4.74621" width="11.7888" height="11.7888" filterUnits="userSpaceOnUse" color-interpolation-filters="sRGB">
<feFlood flood-opacity="0" result="BackgroundImageFix"/>
<feColorMatrix in="SourceAlpha" type="matrix" values="0 0 0 0 0 0 0 0 0 0 0 0 0 0 0 0 0 0 127 0" result="hardAlpha"/>
<feOffset/>
<feGaussianBlur stdDeviation="0.0622196"/>
<feColorMatrix type="matrix" values="0 0 0 0 0.219608 0 0 0 0 1 0 0 0 0 0.494118 0 0 0 1 0"/>
<feBlend mode="normal" in2="BackgroundImageFix" result="effect1_dropShadow_219_1019"/>
<feColorMatrix in="SourceAlpha" type="matrix" values="0 0 0 0 0 0 0 0 0 0 0 0 0 0 0 0 0 0 127 0" result="hardAlpha"/>
<feOffset/>
<feGaussianBlur stdDeviation="0.124439"/>
<feColorMatrix type="matrix" values="0 0 0 0 0.219608 0 0 0 0 1 0 0 0 0 0.494118 0 0 0 1 0"/>
<feBlend mode="normal" in2="effect1_dropShadow_219_1019" result="effect2_dropShadow_219_1019"/>
<feColorMatrix in="SourceAlpha" type="matrix" values="0 0 0 0 0 0 0 0 0 0 0 0 0 0 0 0 0 0 127 0" result="hardAlpha"/>
<feOffset/>
<feGaussianBlur stdDeviation="0.435537"/>
<feColorMatrix type="matrix" values="0 0 0 0 0.219608 0 0 0 0 1 0 0 0 0 0.494118 0 0 0 1 0"/>
<feBlend mode="normal" in2="effect2_dropShadow_219_1019" result="effect3_dropShadow_219_1019"/>
<feColorMatrix in="SourceAlpha" type="matrix" values="0 0 0 0 0 0 0 0 0 0 0 0 0 0 0 0 0 0 127 0" result="hardAlpha"/>
<feOffset/>
<feGaussianBlur stdDeviation="0.871074"/>
<feColorMatrix type="matrix" values="0 0 0 0 0.219608 0 0 0 0 1 0 0 0 0 0.494118 0 0 0 1 0"/>
<feBlend mode="normal" in2="effect3_dropShadow_219_1019" result="effect4_dropShadow_219_1019"/>
<feColorMatrix in="SourceAlpha" type="matrix" values="0 0 0 0 0 0 0 0 0 0 0 0 0 0 0 0 0 0 127 0" result="hardAlpha"/>
<feOffset/>
<feGaussianBlur stdDeviation="1.49327"/>
<feColorMatrix type="matrix" values="0 0 0 0 0.219608 0 0 0 0 1 0 0 0 0 0.494118 0 0 0 1 0"/>
<feBlend mode="normal" in2="effect4_dropShadow_219_1019" result="effect5_dropShadow_219_1019"/>
<feColorMatrix in="SourceAlpha" type="matrix" values="0 0 0 0 0 0 0 0 0 0 0 0 0 0 0 0 0 0 127 0" result="hardAlpha"/>
<feOffset/>
<feGaussianBlur stdDeviation="2.61322"/>
<feColorMatrix type="matrix" values="0 0 0 0 0.219608 0 0 0 0 1 0 0 0 0 0.494118 0 0 0 1 0"/>
<feBlend mode="normal" in2="effect5_dropShadow_219_1019" result="effect6_dropShadow_219_1019"/>
<feBlend mode="normal" in="SourceGraphic" in2="effect6_dropShadow_219_1019" result="shape"/>
</filter>
<filter id="filter7_dddddd_219_1019" x="24.8434" y="29.5197" width="17.6832" height="17.6832" filterUnits="userSpaceOnUse" color-interpolation-filters="sRGB">
<feFlood flood-opacity="0" result="BackgroundImageFix"/>
<feColorMatrix in="SourceAlpha" type="matrix" values="0 0 0 0 0 0 0 0 0 0 0 0 0 0 0 0 0 0 127 0" result="hardAlpha"/>
<feOffset/>
<feGaussianBlur stdDeviation="0.0933293"/>
<feColorMatrix type="matrix" values="0 0 0 0 0.219608 0 0 0 0 1 0 0 0 0 0.494118 0 0 0 1 0"/>
<feBlend mode="normal" in2="BackgroundImageFix" result="effect1_dropShadow_219_1019"/>
<feColorMatrix in="SourceAlpha" type="matrix" values="0 0 0 0 0 0 0 0 0 0 0 0 0 0 0 0 0 0 127 0" result="hardAlpha"/>
<feOffset/>
<feGaussianBlur stdDeviation="0.186659"/>
<feColorMatrix type="matrix" values="0 0 0 0 0.219608 0 0 0 0 1 0 0 0 0 0.494118 0 0 0 1 0"/>
<feBlend mode="normal" in2="effect1_dropShadow_219_1019" result="effect2_dropShadow_219_1019"/>
<feColorMatrix in="SourceAlpha" type="matrix" values="0 0 0 0 0 0 0 0 0 0 0 0 0 0 0 0 0 0 127 0" result="hardAlpha"/>
<feOffset/>
<feGaussianBlur stdDeviation="0.653306"/>
<feColorMatrix type="matrix" values="0 0 0 0 0.219608 0 0 0 0 1 0 0 0 0 0.494118 0 0 0 1 0"/>
<feBlend mode="normal" in2="effect2_dropShadow_219_1019" result="effect3_dropShadow_219_1019"/>
<feColorMatrix in="SourceAlpha" type="matrix" values="0 0 0 0 0 0 0 0 0 0 0 0 0 0 0 0 0 0 127 0" result="hardAlpha"/>
<feOffset/>
<feGaussianBlur stdDeviation="1.30661"/>
<feColorMatrix type="matrix" values="0 0 0 0 0.219608 0 0 0 0 1 0 0 0 0 0.494118 0 0 0 1 0"/>
<feBlend mode="normal" in2="effect3_dropShadow_219_1019" result="effect4_dropShadow_219_1019"/>
<feColorMatrix in="SourceAlpha" type="matrix" values="0 0 0 0 0 0 0 0 0 0 0 0 0 0 0 0 0 0 127 0" result="hardAlpha"/>
<feOffset/>
<feGaussianBlur stdDeviation="2.2399"/>
<feColorMatrix type="matrix" values="0 0 0 0 0.219608 0 0 0 0 1 0 0 0 0 0.494118 0 0 0 1 0"/>
<feBlend mode="normal" in2="effect4_dropShadow_219_1019" result="effect5_dropShadow_219_1019"/>
<feColorMatrix in="SourceAlpha" type="matrix" values="0 0 0 0 0 0 0 0 0 0 0 0 0 0 0 0 0 0 127 0" result="hardAlpha"/>
<feOffset/>
<feGaussianBlur stdDeviation="3.91983"/>
<feColorMatrix type="matrix" values="0 0 0 0 0.219608 0 0 0 0 1 0 0 0 0 0.494118 0 0 0 1 0"/>
<feBlend mode="normal" in2="effect5_dropShadow_219_1019" result="effect6_dropShadow_219_1019"/>
<feBlend mode="normal" in="SourceGraphic" in2="effect6_dropShadow_219_1019" result="shape"/>
</filter>
<filter id="filter8_dddddd_219_1019" x="9.42248" y="34.8048" width="11.7888" height="11.7888" filterUnits="userSpaceOnUse" color-interpolation-filters="sRGB">
<feFlood flood-opacity="0" result="BackgroundImageFix"/>
<feColorMatrix in="SourceAlpha" type="matrix" values="0 0 0 0 0 0 0 0 0 0 0 0 0 0 0 0 0 0 127 0" result="hardAlpha"/>
<feOffset/>
<feGaussianBlur stdDeviation="0.0622196"/>
<feColorMatrix type="matrix" values="0 0 0 0 0.219608 0 0 0 0 1 0 0 0 0 0.494118 0 0 0 1 0"/>
<feBlend mode="normal" in2="BackgroundImageFix" result="effect1_dropShadow_219_1019"/>
<feColorMatrix in="SourceAlpha" type="matrix" values="0 0 0 0 0 0 0 0 0 0 0 0 0 0 0 0 0 0 127 0" result="hardAlpha"/>
<feOffset/>
<feGaussianBlur stdDeviation="0.124439"/>
<feColorMatrix type="matrix" values="0 0 0 0 0.219608 0 0 0 0 1 0 0 0 0 0.494118 0 0 0 1 0"/>
<feBlend mode="normal" in2="effect1_dropShadow_219_1019" result="effect2_dropShadow_219_1019"/>
<feColorMatrix in="SourceAlpha" type="matrix" values="0 0 0 0 0 0 0 0 0 0 0 0 0 0 0 0 0 0 127 0" result="hardAlpha"/>
<feOffset/>
<feGaussianBlur stdDeviation="0.435537"/>
<feColorMatrix type="matrix" values="0 0 0 0 0.219608 0 0 0 0 1 0 0 0 0 0.494118 0 0 0 1 0"/>
<feBlend mode="normal" in2="effect2_dropShadow_219_1019" result="effect3_dropShadow_219_1019"/>
<feColorMatrix in="SourceAlpha" type="matrix" values="0 0 0 0 0 0 0 0 0 0 0 0 0 0 0 0 0 0 127 0" result="hardAlpha"/>
<feOffset/>
<feGaussianBlur stdDeviation="0.871074"/>
<feColorMatrix type="matrix" values="0 0 0 0 0.219608 0 0 0 0 1 0 0 0 0 0.494118 0 0 0 1 0"/>
<feBlend mode="normal" in2="effect3_dropShadow_219_1019" result="effect4_dropShadow_219_1019"/>
<feColorMatrix in="SourceAlpha" type="matrix" values="0 0 0 0 0 0 0 0 0 0 0 0 0 0 0 0 0 0 127 0" result="hardAlpha"/>
<feOffset/>
<feGaussianBlur stdDeviation="1.49327"/>
<feColorMatrix type="matrix" values="0 0 0 0 0.219608 0 0 0 0 1 0 0 0 0 0.494118 0 0 0 1 0"/>
<feBlend mode="normal" in2="effect4_dropShadow_219_1019" result="effect5_dropShadow_219_1019"/>
<feColorMatrix in="SourceAlpha" type="matrix" values="0 0 0 0 0 0 0 0 0 0 0 0 0 0 0 0 0 0 127 0" result="hardAlpha"/>
<feOffset/>
<feGaussianBlur stdDeviation="2.61322"/>
<feColorMatrix type="matrix" values="0 0 0 0 0.219608 0 0 0 0 1 0 0 0 0 0.494118 0 0 0 1 0"/>
<feBlend mode="normal" in2="effect5_dropShadow_219_1019" result="effect6_dropShadow_219_1019"/>
<feBlend mode="normal" in="SourceGraphic" in2="effect6_dropShadow_219_1019" result="shape"/>
</filter>
<clipPath id="clip0_219_1019">
<rect width="48" height="48" rx="12.231" fill="white"/>
</clipPath>
<clipPath id="clip1_219_1019">
<rect width="48" height="48" rx="12.231" fill="white"/>
</clipPath>
</defs>
</svg>
